<svg width="118" height="38" viewBox="0 0 118 38" fill="none" xmlns="http://www.w3.org/2000/svg">
<path d="M10.56 0.999998H14.96L25.08 29H20.36L17.96 22.36H7.52L5.12 29H0.4L10.56 0.999998ZM16.88 18.48L12.76 6.64H12.68L8.64 18.48H16.88ZM28.2688 0.439998H32.7888V29H28.2688V0.439998ZM39.9859 12.92H36.3859V9.08H39.9859V4.96L43.8259 1.12H50.6659V4.88H45.7859L44.4259 6.2V9.08H50.6659V12.92H44.5059V29H39.9859V12.92ZM52.2344 25.44V20.72L55.7944 17.2H66.0744V14.24L64.5944 12.76H58.3144L56.8344 14.24V15.52H52.3944V13.2L56.4744 9.08H66.4344L70.5144 13.2V29H66.3944V25.92L63.1944 29H55.7944L52.2344 25.44ZM62.7544 25.44L66.0744 22.24V20.56H57.9544L56.6744 21.8V24.24L57.8744 25.44H62.7544Z" fill="#D9D9D9"/>
<path d="M94.2497 9.08V33.56L89.9297 37.84H79.4497L75.7297 34.16V31.44H81.0097V32.64L81.7697 33.44H87.6097L88.9697 32.04V26.04L86.0097 29H79.4097L75.1297 24.68V9.08H80.4097V23.12L81.7697 24.52H85.2497L88.9697 20.56V9.08H94.2497ZM98.4406 25.32V20.76L102.121 17.08H112.241V14.56L111.001 13.32H105.001L103.801 14.56V15.68H98.6006V13.4L102.881 9.08H113.161L117.441 13.4V29H112.681V26.16L109.721 29H102.121L98.4406 25.32ZM109.361 24.92L112.241 22.16V20.84H104.721L103.641 21.92V23.92L104.641 24.92H109.361Z" fill="#D9D9D9"/>
<path d="M94.2497 9.08V33.56L89.9297 37.84H79.4497L75.7297 34.16V31.44H81.0097V32.64L81.7697 33.44H87.6097L88.9697 32.04V26.04L86.0097 29H79.4097L75.1297 24.68V9.08H80.4097V23.12L81.7697 24.52H85.2497L88.9697 20.56V9.08H94.2497ZM98.4406 25.32V20.76L102.121 17.08H112.241V14.56L111.001 13.32H105.001L103.801 14.56V15.68H98.6006V13.4L102.881 9.08H113.161L117.441 13.4V29H112.681V26.16L109.721 29H102.121L98.4406 25.32ZM109.361 24.92L112.241 22.16V20.84H104.721L103.641 21.92V23.92L104.641 24.92H109.361Z" fill="#D9D9D9"/>
</svg>
